<svg xmlns="http://www.w3.org/2000/svg" viewBox="0 0 280.42 100" role="img" aria-label="Marcaí"><path fill="#362118" fill-rule="evenodd" transform="translate(0 0) scale(0.042212) translate(-330 -77)" d="M 739.500 77.636 C 727.636 78.518, 721.453 80.193, 711.838 85.132 C 696.048 93.243, 687.945 103.701, 678.033 128.762 C 672.461 142.851, 668.248 147.193, 656.500 150.954 C 576.068 176.708, 528.523 211.578, 485.319 276.500 C 464.352 308.006, 451.844 334.471, 444.622 362.609 C 439.380 383.030, 439.997 388.850, 447.716 391.789 C 455.718 394.836, 1039.361 395.259, 1047 392.223 C 1050.357 390.889, 1052.643 388.134, 1053.415 384.493 C 1054.134 381.101, 1047.348 353.227, 1043.559 344.012 C 1042.312 340.980, 1040.520 336.025, 1039.575 333 C 1035.920 321.292, 1020.327 291.650, 1008.277 273.500 C 994 251.998, 991.659 249.004, 975.599 231.705 C 940.670 194.081, 906.703 173.377, 849.204 154.665 C 821.043 145.500, 819.910 144.589, 813.442 125.927 C 807.365 108.390, 804.586 103.497, 795.611 94.524 C 783.070 81.985, 775.066 78.825, 753 77.698 C 748.325 77.460, 742.250 77.432, 739.500 77.636 M 1601.254 430.423 C 1583.195 433.874, 1565.572 446.798, 1553.457 465.474 C 1545.416 477.871, 1542.797 483.861, 1533.995 510 C 1530.453 520.518, 1524.172 538.423, 1519.612 551 C 1517.718 556.225, 1514.538 565.167, 1512.547 570.871 C 1510.556 576.575, 1508.247 582.556, 1507.416 584.162 C 1506.586 585.768, 1504.395 591.226, 1502.548 596.291 C 1495.451 615.753, 1493.011 622.060, 1491.160 625.716 C 1490.107 627.797, 1488.010 632.875, 1486.499 637 C 1479.522 656.057, 1474.924 668.433, 1470.709 679.500 C 1468.195 686.100, 1463.841 697.800, 1461.033 705.500 C 1458.225 713.200, 1453.944 724.675, 1451.520 731 C 1449.097 737.325, 1444.811 748.800, 1441.996 756.500 C 1435.894 773.192, 1419.017 817.372, 1411.436 836.500 C 1410.128 839.800, 1407.752 846.100, 1406.156 850.500 C 1400.932 864.901, 1396.971 875.381, 1394.062 882.500 C 1392.489 886.350, 1389.989 892.650, 1388.508 896.500 C 1383.673 909.063, 1378.316 922.292, 1373.525 933.500 C 1370.939 939.550, 1367.554 947.650, 1366.002 951.500 C 1359.951 966.515, 1357.819 971.721, 1355.353 977.500 C 1353.944 980.800, 1349.747 991.150, 1346.024 1000.500 C 1342.302 1009.850, 1336.895 1023.350, 1334.008 1030.500 C 1331.122 1037.650, 1327.724 1046.425, 1326.457 1050 C 1325.191 1053.575, 1320.258 1067.075, 1315.497 1080 C 1310.735 1092.925, 1305.107 1108.225, 1302.992 1114 C 1300.876 1119.775, 1297.047 1129.900, 1294.483 1136.500 C 1283.422 1164.970, 1263.731 1224.918, 1262.457 1234 C 1262.110 1236.475, 1260.740 1242.755, 1259.413 1247.955 C 1252.091 1276.645, 1259.618 1295.497, 1291.904 1329.337 C 1319.599 1358.366, 1326.907 1370.175, 1333.158 1396 C 1335.729 1406.622, 1336.684 1426.178, 1335.092 1435.598 C 1328.185 1476.459, 1287.692 1554.539, 1232.717 1633 C 1213.456 1660.490, 1209.688 1665.720, 1193.097 1688 C 1171.248 1717.341, 1149.285 1744.765, 1127.409 1770.020 C 1118.109 1780.756, 1103.075 1798.507, 1094 1809.465 C 1084.925 1820.423, 1074.552 1832.789, 1070.950 1836.945 C 1038.925 1873.884, 999.966 1928.156, 969.694 1978 C 947.748 2014.137, 937.076 2033.997, 919.456 2071.500 C 900.992 2110.798, 898.860 2115.896, 887.254 2148.500 C 885.101 2154.550, 882.813 2160.482, 882.170 2161.682 C 881.528 2162.883, 880.112 2167.593, 879.023 2172.149 C 877.935 2176.706, 875.947 2183.599, 874.606 2187.467 C 870.691 2198.754, 865.079 2224.806, 861.900 2246.446 C 860.279 2257.476, 858.472 2269.650, 857.883 2273.500 C 856.271 2284.048, 855.550 2350.025, 856.908 2362.829 C 861.775 2408.750, 877.031 2433.830, 905.677 2443.006 C 918.720 2447.184, 929.287 2447.164, 945.642 2442.931 C 963.543 2438.298, 972.359 2431.481, 979.261 2416.936 C 984.898 2405.054, 985.470 2402.078, 985.391 2385 C 985.330 2371.788, 984.865 2367.286, 982.240 2354.500 C 976.118 2324.672, 975.774 2289.783, 981.386 2267.794 C 982.748 2262.456, 984.578 2254.356, 985.453 2249.794 C 986.998 2241.735, 994.710 2218.207, 1000.791 2203 C 1021.788 2150.491, 1044.076 2122.978, 1074.625 2111.859 C 1080.606 2109.682, 1088.425 2106.843, 1092 2105.549 C 1112.518 2098.125, 1133.181 2085.364, 1156 2066.026 C 1187.094 2039.674, 1208.479 2017.108, 1242.263 1975 C 1248.662 1967.025, 1257.205 1956.450, 1261.248 1951.500 C 1296.623 1908.188, 1298.683 1905.296, 1381.834 1782.234 C 1401.311 1753.408, 1420.154 1723.809, 1441.506 1688.500 C 1447.160 1679.150, 1455.357 1665.650, 1459.721 1658.500 C 1464.085 1651.350, 1472.531 1636.950, 1478.490 1626.500 C 1484.448 1616.050, 1490.533 1605.700, 1492.012 1603.500 C 1493.491 1601.300, 1497.987 1593.650, 1502.005 1586.500 C 1513.021 1566.893, 1515.815 1561.981, 1526.408 1543.601 C 1546.200 1509.258, 1572.641 1456.575, 1593.461 1410 C 1598.605 1398.493, 1623.861 1343.877, 1627.912 1335.500 C 1635.798 1319.194, 1646.568 1295.746, 1649.042 1289.500 C 1652.251 1281.397, 1658.799 1266.022, 1665.437 1251 C 1673.618 1232.490, 1695.617 1177.218, 1711.210 1136 C 1715.059 1125.825, 1719.763 1113.450, 1721.664 1108.500 C 1723.565 1103.550, 1726.638 1095.450, 1728.494 1090.500 C 1730.350 1085.550, 1734.170 1075.650, 1736.983 1068.500 C 1742.100 1055.493, 1745.784 1045.689, 1752.953 1026 C 1759.576 1007.810, 1763.682 996.729, 1766.479 989.500 C 1770.860 978.173, 1775.632 965.041, 1778.286 957 C 1779.648 952.875, 1782.874 943.875, 1785.454 937 C 1788.035 930.125, 1791.207 921.575, 1792.504 918 C 1793.801 914.425, 1797.408 904.525, 1800.519 896 C 1803.630 887.475, 1814.617 855.300, 1824.934 824.500 C 1835.251 793.700, 1845.078 764.675, 1846.771 760 C 1854.106 739.748, 1856.946 731.072, 1868.521 693.552 C 1872.213 681.584, 1876.409 659.068, 1877.568 645 C 1878.042 639.258, 1877.448 632.509, 1875.037 616.208 C 1871.629 593.167, 1868.585 583.972, 1858.142 565.179 C 1841.121 534.547, 1807.162 504.632, 1759.500 478.284 C 1749.360 472.678, 1719.102 457.994, 1711.600 455.038 C 1707.695 453.499, 1698.650 449.880, 1691.500 446.997 C 1654.273 431.983, 1623.075 426.254, 1601.254 430.423 M 680.500 446.116 C 661.800 446.486, 585.670 447.068, 511.321 447.410 C 436.466 447.754, 372.811 448.453, 368.676 448.978 C 352.520 451.026, 338.914 459.819, 336.147 470 C 334.051 477.712, 332.527 518.457, 333.776 533.397 C 335.211 550.567, 336.779 554.870, 344.421 562.603 C 354.456 572.760, 357.314 573.500, 386.500 573.500 C 412.743 573.500, 413.678 573.679, 416.740 579.280 C 418.397 582.312, 418.506 591.458, 418.597 736 C 418.650 820.425, 418.986 1043.850, 419.345 1232.500 C 419.758 1449.986, 419.624 1601.481, 418.979 1646.500 C 418.420 1685.550, 417.714 1738.875, 417.411 1765 C 417.063 1794.996, 416.465 1813.531, 415.789 1815.297 C 413.720 1820.702, 410.799 1821.332, 384.933 1821.951 L 361.366 1822.515 354.433 1825.988 C 344.780 1830.824, 335.981 1839.720, 333.652 1847 C 328.375 1863.493, 330.352 1916.068, 336.714 1928.428 C 342.276 1939.233, 349.923 1943.989, 366 1946.639 C 375.742 1948.245, 395.304 1948.385, 637 1948.580 C 780.275 1948.696, 903.800 1948.447, 911.500 1948.028 C 932.571 1946.882, 934.275 1945.855, 947.238 1926.500 C 956.178 1913.152, 992.540 1864.394, 1001.679 1853.500 C 1004.909 1849.650, 1010.229 1843.125, 1013.501 1839 C 1021.449 1828.981, 1029.981 1819.198, 1050.418 1796.669 C 1069.154 1776.015, 1072.445 1771.705, 1074.147 1765.595 C 1074.988 1762.575, 1075.349 1676.026, 1075.523 1436 C 1075.652 1256.975, 1076.150 1084.400, 1076.629 1052.500 C 1077.805 974.180, 1077.471 773.066, 1076.064 712 C 1074.120 627.675, 1074.169 582.105, 1076.206 578.385 C 1079.177 572.960, 1082.824 572.003, 1100.651 571.974 C 1154.833 571.886, 1158.903 566.737, 1159.327 497.728 L 1159.500 469.500 1156.728 464.784 C 1151.986 456.717, 1141.701 450.822, 1129.195 449.002 C 1125.268 448.431, 1049.933 447.621, 947 447.044 C 850.475 446.503, 758.675 445.922, 743 445.752 C 727.325 445.583, 699.200 445.747, 680.500 446.116 M 1614.500 508.492 C 1607.017 511.120, 1604.343 515.680, 1593.974 543.500 C 1583.436 571.772, 1580.829 578.699, 1575.533 592.500 C 1570.472 605.688, 1557.829 638.419, 1547.335 665.500 C 1545.416 670.450, 1542.289 678.550, 1540.385 683.500 C 1538.480 688.450, 1535.615 695.650, 1534.016 699.500 C 1532.418 703.350, 1529.473 710.775, 1527.472 716 C 1522.351 729.370, 1517.577 741.647, 1515.225 747.500 C 1514.120 750.250, 1511.776 756.100, 1510.016 760.500 C 1508.257 764.900, 1505.459 771.875, 1503.799 776 C 1502.140 780.125, 1499.075 788, 1496.988 793.500 C 1494.901 799, 1491.388 808, 1489.182 813.500 C 1479.006 838.872, 1474.470 850.485, 1469.848 863 C 1459.855 890.057, 1456.897 898.035, 1446.115 927 C 1432.709 963.018, 1428.796 973.722, 1424.548 986 C 1422.741 991.225, 1419.154 1001.125, 1416.578 1008 C 1414.002 1014.875, 1410.849 1023.451, 1409.572 1027.059 C 1408.294 1030.666, 1406.520 1035.028, 1405.628 1036.753 C 1404.736 1038.477, 1402.685 1043.851, 1401.070 1048.694 C 1399.455 1053.537, 1396.019 1062.450, 1393.435 1068.500 C 1390.850 1074.550, 1387.278 1083.550, 1385.496 1088.500 C 1383.714 1093.450, 1381.308 1099.750, 1380.149 1102.500 C 1374.699 1115.434, 1366.606 1136.568, 1353.726 1171.500 C 1351.293 1178.100, 1345.010 1194.975, 1339.765 1209 C 1326.607 1244.183, 1326.271 1245.691, 1329.991 1252.982 C 1332.576 1258.049, 1336.983 1261.329, 1345.559 1264.566 C 1369.486 1273.598, 1379.476 1267.228, 1391.606 1235.203 C 1398.394 1217.283, 1403.428 1203.637, 1406.438 1195 C 1415.624 1168.643, 1439.849 1104.873, 1466.460 1037 C 1469.586 1029.025, 1474.174 1017.325, 1476.654 1011 C 1479.135 1004.675, 1482.461 996.350, 1484.046 992.500 C 1488.768 981.028, 1494.643 965.777, 1495.987 961.500 C 1496.678 959.300, 1498.084 955.925, 1499.111 954 C 1501.448 949.618, 1506.088 938.497, 1511.001 925.500 C 1513.080 920, 1517.509 908.750, 1520.843 900.500 C 1524.176 892.250, 1529.206 879.425, 1532.019 872 C 1534.833 864.575, 1538.193 855.800, 1539.486 852.500 C 1540.779 849.200, 1543.598 841.775, 1545.749 836 C 1552.050 819.088, 1557.971 803.388, 1563.095 790 C 1565.727 783.125, 1571.540 767.600, 1576.013 755.500 C 1583.975 733.961, 1594.822 705.450, 1605.688 677.500 C 1608.681 669.800, 1612.869 658.775, 1614.994 653 C 1617.119 647.225, 1620.229 638.787, 1621.903 634.250 C 1623.578 629.712, 1625.600 624.740, 1626.396 623.200 C 1627.193 621.661, 1628.842 617.273, 1630.061 613.450 C 1631.281 609.628, 1633.133 604.797, 1634.177 602.716 C 1635.221 600.635, 1637.359 595.460, 1638.927 591.216 C 1642.153 582.490, 1645.705 573.740, 1650.180 563.500 C 1664.375 531.020, 1658.835 516.503, 1629.372 508.967 C 1620.369 506.665, 1619.761 506.645, 1614.500 508.492 M 519 572 C 499.804 572.914, 500.709 570.260, 501.502 623.324 C 501.848 646.521, 502.227 705.813, 502.342 755.084 C 502.574 853.475, 502.353 850, 508.373 850 C 513.710 850, 524.757 839.443, 635.425 728.575 C 764.002 599.766, 779.974 583.225, 781.449 577.349 C 782.973 571.274, 791.095 571.643, 654.282 571.568 C 585.652 571.531, 524.775 571.725, 519 572 M 802.588 798.342 C 706.289 894.779, 620.525 981.003, 612 989.950 C 596.079 1006.658, 537.395 1064.095, 519.013 1080.961 C 511.935 1087.454, 508.092 1091.798, 506.759 1094.812 C 503.890 1101.299, 503.248 1118.775, 502.509 1210.500 C 501.812 1297.191, 501.702 1295.167, 507.118 1295.801 C 511.146 1296.274, 516.714 1291.206, 551.495 1255.420 C 587.829 1218.036, 709.551 1096.913, 760.466 1047.479 C 779.148 1029.340, 804.875 1003.925, 817.639 991 C 830.403 978.075, 872.850 935.550, 911.964 896.500 C 969.693 838.868, 983.571 824.505, 985.675 820.216 C 989.684 812.047, 990.287 796.998, 989.513 724.500 C 988.456 625.441, 988.247 623, 980.815 623 C 977.973 623, 961.063 639.636, 802.588 798.342 M 975.138 1069.015 C 972.849 1070.673, 963.894 1079.323, 955.238 1088.237 C 946.582 1097.151, 917.404 1126.732, 890.398 1153.972 C 863.392 1181.212, 835.287 1209.800, 827.942 1217.500 C 798.260 1248.619, 660.675 1386.858, 619.130 1427.304 C 564.886 1480.112, 507.921 1538.274, 505.180 1543.648 C 504.068 1545.826, 502.685 1550.284, 502.106 1553.554 C 500.454 1562.888, 500.401 1738.683, 502.050 1742.250 C 503.748 1745.925, 507.617 1745.881, 512.333 1742.133 C 514.317 1740.556, 621.401 1633.772, 750.297 1504.836 C 955.330 1299.739, 985.010 1269.680, 987.493 1264.604 C 990.148 1259.177, 990.359 1257.824, 990.752 1243.651 C 991.418 1219.658, 989.161 1080.077, 988.018 1074.576 C 986.143 1065.547, 982.248 1063.865, 975.138 1069.015 M 974.340 1522.866 C 971.678 1524.992, 939.125 1557.162, 902 1594.354 C 864.875 1631.546, 823.748 1672.218, 810.606 1684.738 C 797.465 1697.257, 770.240 1723.434, 750.106 1742.909 C 729.973 1762.384, 708.825 1782.184, 703.110 1786.909 C 672.160 1812.501, 669.775 1816.086, 681.099 1819.985 C 684.951 1821.311, 703.514 1821.500, 830 1821.500 C 972.521 1821.500, 974.554 1821.473, 978.437 1819.500 C 986.101 1815.606, 985.953 1816.626, 987.096 1759.860 C 988.594 1685.386, 987.926 1526.260, 986.100 1523 C 983.185 1517.794, 980.725 1517.766, 974.340 1522.866 M 1103.228 1921.019 C 1091.218 1922.769, 1080.686 1931.222, 1074.597 1944 C 1071.741 1949.995, 1071.500 1951.319, 1071.500 1961.053 C 1071.500 1971.238, 1071.631 1971.872, 1075.261 1979.215 C 1090.943 2010.940, 1131.424 2011.296, 1146.906 1979.844 C 1151.475 1970.562, 1151.301 1955.125, 1146.519 1945.500 C 1137.892 1928.136, 1120.782 1918.461, 1103.228 1921.019 M 881.964 1996.349 C 881.669 1996.655, 799.544 1997.129, 699.464 1997.402 C 508.742 1997.923, 453.636 1998.528, 448.266 2000.161 C 443.483 2001.616, 441 2005.345, 441 2011.073 C 441 2016.178, 450.461 2045.035, 459.562 2067.687 C 475.821 2108.157, 499.851 2141.442, 535.338 2172.647 C 605.123 2234.011, 682.679 2261.702, 776.387 2258.711 C 807.700 2257.712, 810.058 2256.015, 814.432 2231.334 C 822.973 2183.129, 843.169 2119.169, 866.004 2068 C 868.827 2061.675, 872.003 2054.353, 873.061 2051.730 C 876.012 2044.420, 879.589 2037.555, 886.856 2025.259 C 895.790 2010.142, 898 2005.895, 898 2003.844 C 898 2000.085, 893.789 1996.928, 888 1996.346 C 884.975 1996.041, 882.259 1996.043, 881.964 1996.349"/><path fill="#362118" fill-rule="evenodd" transform="translate(78.34 20.5) scale(0.062426) translate(-78 -34)" d="M 96.401 190.868 C 85.024 191.516, 83.124 192.187, 80.695 196.418 C 79.777 198.017, 79.428 268.452, 79.189 500 C 79.017 665.825, 78.792 816.800, 78.689 835.500 C 78.507 868.181, 78.580 869.636, 80.555 872.998 C 84.233 879.260, 81.214 879.024, 154.177 878.750 C 228.579 878.471, 222.916 879.015, 228.438 871.612 L 230.500 868.848 230.500 680.174 C 230.500 576.403, 230.864 490.938, 231.309 490.250 C 232.906 487.783, 236.806 488.903, 240.043 492.759 C 243.172 496.486, 251.699 510.635, 260.678 527 C 263.243 531.675, 269.167 542.025, 273.843 550 C 278.519 557.975, 286.679 572.150, 291.977 581.500 C 297.274 590.850, 304.120 602.775, 307.189 608 C 310.258 613.225, 316.581 624.025, 321.240 632 C 325.899 639.975, 331.064 648.750, 332.717 651.500 C 334.371 654.250, 339.465 663.025, 344.038 671 C 348.611 678.975, 355.577 690.900, 359.519 697.500 C 363.461 704.100, 370.873 716.700, 375.991 725.500 C 412.827 788.841, 418.089 797.192, 424.250 802.086 C 430.814 807.299, 435.175 807.957, 465 808.235 C 498.847 808.550, 497.139 809.417, 510.797 785 C 524.368 760.737, 561.827 695.871, 585.002 656.500 C 595.627 638.450, 625.892 585.026, 635.705 567 C 661.419 519.761, 673.177 498.603, 675.965 494.550 C 679.349 489.632, 683.779 485.765, 685.419 486.297 C 688.998 487.458, 688.997 487.414, 689.123 673.136 C 689.190 772.886, 689.598 857.823, 690.028 861.884 C 690.880 869.936, 692.690 873.318, 697.728 876.268 C 700.532 877.911, 705.433 878.038, 766.358 878.052 C 840.009 878.069, 836.413 878.423, 839.441 870.856 C 841.703 865.202, 842.046 206.290, 839.791 199.548 C 837.461 192.585, 835.128 191.692, 816.728 190.721 C 796.127 189.634, 713.793 190.639, 708.781 192.038 C 704.001 193.373, 699.574 197.128, 696.616 202.355 C 695.326 204.635, 690.988 212.350, 686.977 219.500 C 682.965 226.650, 674.440 241.275, 668.031 252 C 661.623 262.725, 651.007 281.087, 644.440 292.805 C 631.637 315.650, 618.600 337.995, 601.732 366 C 595.935 375.625, 585.920 392.500, 579.477 403.500 C 560.067 436.639, 556.911 441.997, 549.444 454.500 C 541.121 468.437, 528.376 491.547, 518.008 511.500 C 492.092 561.377, 473.859 593.989, 469.848 597.635 C 459.566 606.984, 449.869 594.794, 408.491 520.500 C 377.020 463.993, 348.762 415.579, 328.528 383.500 C 320.544 370.843, 309.449 352.486, 283.800 309.500 C 270.365 286.983, 255.445 261.319, 225.954 210 C 214.143 189.448, 218.308 190.631, 157 190.412 C 129.775 190.316, 102.506 190.521, 96.401 190.868 M 1834.500 341.673 C 1800.804 343.782, 1777.473 350.301, 1750.990 365.005 C 1737.062 372.739, 1730.206 377.498, 1712.123 391.985 C 1697.113 404.011, 1695.443 405.080, 1692.123 404.803 C 1685.989 404.290, 1685.003 400.887, 1685.002 380.218 C 1685 358.145, 1683.452 354.019, 1674.411 351.980 C 1666.930 350.293, 1555.922 350.492, 1552 352.200 C 1547.368 354.217, 1544.997 357.028, 1544.003 361.678 C 1543.554 363.780, 1543.033 478.450, 1542.844 616.500 C 1542.514 857.512, 1542.572 867.632, 1544.316 870.829 C 1548.287 878.106, 1546.706 877.953, 1618.593 877.978 L 1682.685 878 1687.015 875.710 C 1695.995 870.962, 1695.384 878.928, 1695.160 769.595 C 1694.971 677.472, 1695.998 612.407, 1697.993 590 C 1701.042 555.760, 1720.318 520.926, 1744.927 505.183 C 1766.579 491.333, 1787.216 487.035, 1832.185 487.010 C 1854.338 486.998, 1858.743 485.475, 1860.964 477.065 C 1861.492 475.063, 1861.991 446.535, 1862.100 411.986 C 1862.320 342.697, 1862.623 345.667, 1855.018 342.624 C 1851.167 341.083, 1847.011 340.890, 1834.500 341.673 M 2659.500 342.684 C 2610.032 344.747, 2533.278 368.510, 2495.595 393.429 C 2481.888 402.493, 2478.406 407.041, 2479.275 414.748 C 2479.762 419.069, 2511.677 485.745, 2519.731 499.267 C 2525.531 509.005, 2532.269 510.513, 2543.165 504.511 C 2576.659 486.065, 2599.936 477.295, 2633.419 470.508 C 2667.696 463.561, 2704.906 463.528, 2726.500 470.426 C 2752.303 478.669, 2773.579 496.758, 2785.394 520.500 C 2792.319 534.416, 2795.453 554.607, 2791.600 560.488 C 2788.224 565.640, 2790.403 565.496, 2715 565.563 C 2635.715 565.634, 2616.371 566.501, 2602.237 570.616 C 2597.432 572.015, 2589.977 573.784, 2585.672 574.547 C 2563.840 578.416, 2526.583 593.928, 2510.165 605.984 C 2487.436 622.674, 2470.050 648.476, 2459.974 680.473 C 2448.627 716.506, 2453.013 757.104, 2472.276 794.361 C 2498.116 844.335, 2538.244 871.570, 2599.500 880.706 C 2617.015 883.319, 2678.461 883.275, 2694.500 880.639 C 2729.413 874.901, 2746.475 867.543, 2776.141 845.432 C 2795.355 831.111, 2797.612 831.883, 2799.099 853.282 C 2800.195 869.053, 2803.021 873.826, 2812.577 876.043 C 2820.111 877.790, 2937.220 877.235, 2939.783 875.439 C 2945.829 871.205, 2945.441 883.215, 2945.226 707 C 2945.019 537.252, 2944.975 535.585, 2940.047 512.178 C 2935.146 488.899, 2934.415 486.078, 2930.554 475.578 C 2908.636 415.962, 2862.072 374.334, 2796.875 356.071 C 2760.031 345.751, 2707.859 340.666, 2659.500 342.684 M 1161.500 344.153 C 1098.225 346.120, 1023.594 367.636, 980.365 396.374 C 970.490 402.938, 968 406.442, 968 413.772 C 968 419.724, 968.412 420.780, 983.509 453.500 C 988.077 463.400, 993.690 475.775, 995.984 481 C 1010.392 513.820, 1012.969 514.961, 1038.912 500 C 1056.741 489.719, 1094.145 475.789, 1115.238 471.576 C 1143.942 465.843, 1178.779 464.103, 1196.722 467.507 C 1232.331 474.262, 1260.343 497.802, 1271.001 529.927 C 1276.192 545.574, 1275.907 554.724, 1270.025 561.289 L 1267.148 564.500 1220.384 564.185 C 1143.893 563.670, 1092.288 566.069, 1074.727 570.957 C 1069.102 572.522, 1061.800 574.346, 1058.500 575.008 C 1051.077 576.499, 1032.983 583.482, 1021.176 589.412 C 986.852 606.650, 964.698 631.726, 948.023 672.216 C 936.884 699.262, 936.642 743.667, 947.477 772.205 C 972.650 838.504, 1017.809 871.491, 1096.500 881.059 C 1109.690 882.662, 1149.875 882.731, 1162.500 881.171 C 1201.403 876.365, 1236.922 862.154, 1266.566 839.535 C 1281.411 828.208, 1283.295 829.619, 1284 852.586 L 1284.500 868.874 1287.415 871.914 C 1289.018 873.586, 1291.718 875.374, 1293.415 875.887 C 1299.248 877.652, 1415.746 878.183, 1419.078 876.459 C 1422.176 874.858, 1424.400 871.325, 1425.349 866.500 C 1426.338 861.476, 1424.162 556.452, 1423.053 544.500 C 1416.624 475.248, 1400.294 435.457, 1364.050 400.726 C 1321.502 359.955, 1254.565 341.259, 1161.500 344.153 M 2148.500 344.049 C 2133.012 345.326, 2099.907 351.532, 2084.403 356.065 C 2022.624 374.127, 1966.684 415.919, 1932.565 469.500 C 1881.059 550.388, 1881.133 680.292, 1932.731 758.500 C 1945.790 778.295, 1971.453 805.823, 1991.838 821.903 C 2021.557 845.347, 2057.530 863.915, 2089.549 872.339 C 2128.941 882.703, 2198.027 885.199, 2244 877.920 C 2313.187 866.966, 2371.613 825.226, 2403.903 763.685 C 2412.112 748.040, 2410.719 739.628, 2399.222 735.413 C 2386.207 730.641, 2372.406 724.191, 2339.500 707.501 C 2319.700 697.458, 2302.150 688.982, 2300.500 688.666 C 2293.895 687.399, 2291.333 689.473, 2278.529 706.449 C 2251.275 742.586, 2222.713 758.183, 2183.500 758.346 C 2129.994 758.568, 2084.362 730.106, 2063.282 683.363 C 2052.178 658.742, 2048.941 643.111, 2048.926 614.049 C 2048.915 590.814, 2050.227 580.184, 2054.918 565.524 C 2063.651 538.233, 2077.184 516.655, 2095.744 500.429 C 2120.589 478.708, 2144.473 470, 2179.202 470 C 2220.920 470, 2249.727 485.367, 2277.385 522.375 C 2291.584 541.374, 2292.445 541.419, 2324.789 524.863 C 2367.775 502.858, 2390.309 490.302, 2396.384 484.967 C 2405.779 476.719, 2403.907 466.164, 2389.064 443.687 C 2368.161 412.034, 2341.613 388.214, 2309.146 371.983 C 2278.882 356.854, 2262.344 351.770, 2222.500 345.347 C 2211.504 343.575, 2164.299 342.747, 2148.500 344.049 M 3069.315 353.453 C 3067.563 354.221, 3065.313 356.345, 3064.315 358.175 C 3061.410 363.498, 3061.493 863.472, 3064.399 869.325 C 3068.179 876.935, 3063.481 876.465, 3139.117 876.800 C 3214.139 877.133, 3212.253 877.280, 3215.589 870.829 C 3218.351 865.486, 3218.100 364.563, 3215.332 359.837 C 3210.735 351.988, 3216.092 352.527, 3140.177 352.278 C 3084.081 352.094, 3071.955 352.295, 3069.315 353.453 M 2716 650.999 C 2669.156 651.746, 2668.037 651.839, 2650 656.484 C 2611.818 666.317, 2590.433 710.082, 2608.222 741.983 C 2615.038 754.205, 2623.889 761.910, 2640.500 770.081 C 2676.942 788.008, 2715.219 784.670, 2753 760.272 C 2770.122 749.214, 2782.634 733.838, 2788.354 716.823 C 2791.231 708.265, 2793.277 662.489, 2791.045 656.617 C 2788.533 650.010, 2786.691 649.872, 2716 650.999 M 1145.500 652.161 C 1113.509 658.157, 1093.313 676.347, 1087.954 703.990 C 1083.011 729.491, 1087.908 743.767, 1106.795 758.916 C 1144.359 789.047, 1207.937 784.581, 1249.876 748.867 C 1270.573 731.242, 1275.363 718.810, 1275.447 682.500 C 1275.505 657.398, 1274.952 654.666, 1269.288 652.085 C 1266.288 650.718, 1152.826 650.788, 1145.500 652.161"/><path fill="#dfa73a" fill-rule="evenodd" transform="translate(78.34 20.5) scale(0.062426) translate(-78 -34)" d="M 3299 35.596 C 3297.075 36.457, 3291.900 37.838, 3287.500 38.664 C 3283.100 39.490, 3274.960 41.704, 3269.412 43.583 C 3263.864 45.462, 3258.239 47.005, 3256.912 47.010 C 3255.585 47.016, 3250.072 48.567, 3244.661 50.458 C 3239.249 52.348, 3232.274 54.414, 3229.161 55.048 C 3226.047 55.681, 3220.547 57.484, 3216.938 59.053 C 3213.329 60.623, 3208.154 62.398, 3205.438 62.997 C 3202.722 63.596, 3195.775 65.616, 3190 67.486 C 3184.225 69.356, 3176.800 71.750, 3173.500 72.806 C 3170.200 73.863, 3161.650 76.826, 3154.500 79.391 C 3147.350 81.956, 3136.423 85.623, 3130.217 87.541 C 3107.915 94.431, 3102.918 97.552, 3104.445 103.636 C 3105.412 107.489, 3109.970 111.462, 3130.106 126 C 3151.899 141.735, 3155 144.629, 3155 149.232 C 3155 153.661, 3151.842 158.355, 3140.863 170.248 C 3131.105 180.818, 3120.080 193.653, 3095.500 223.062 C 3086.150 234.249, 3074.501 247.924, 3069.614 253.451 C 3056.042 268.800, 3054.460 272.551, 3059.455 277.545 C 3062.354 280.444, 3074.381 280.813, 3106.639 278.991 C 3142.782 276.950, 3146.577 275.120, 3182.870 242.218 C 3206.566 220.737, 3210.334 218.531, 3217.445 221.974 C 3222.049 224.202, 3234.596 235.966, 3246.537 249.250 C 3252.827 256.247, 3253.861 257, 3257.179 257 C 3261.088 257, 3264.595 253.865, 3265.471 249.588 C 3265.706 248.439, 3268.676 236.475, 3272.071 223 C 3275.467 209.525, 3279.125 194.900, 3280.201 190.500 C 3281.276 186.100, 3283.667 177.550, 3285.513 171.500 C 3287.359 165.450, 3289.360 157.732, 3289.961 154.348 C 3290.561 150.964, 3292.131 145.026, 3293.449 141.150 C 3294.767 137.275, 3296.549 129.678, 3297.409 124.267 C 3298.270 118.856, 3300.124 111.069, 3301.530 106.964 C 3302.936 102.859, 3304.757 94.775, 3305.577 89 C 3306.396 83.225, 3308.338 74.450, 3309.892 69.500 C 3311.445 64.550, 3313.306 55.870, 3314.025 50.212 C 3315.278 40.363, 3315.247 39.808, 3313.316 37.212 C 3310.855 33.903, 3304.410 33.176, 3299 35.596"/></svg>